<?xml version="1.0" encoding="UTF-8"?>
<svg width="96px" height="96px" viewBox="0 0 96 96" version="1.1" xmlns="http://www.w3.org/2000/svg" xmlns:xlink="http://www.w3.org/1999/xlink">
    <!-- Generator: Sketch 61.2 (89653) - https://sketch.com -->
    <title>raven</title>
    <desc>Created with Sketch.</desc>
    <g id="Page-1" stroke="none" stroke-width="1" fill="none" fill-rule="evenodd">
        <g id="raven" fill="#ffffff" fill-rule="nonzero">
            <path d="M93.645,30.398 L81.817,1.851 C81.35216,0.7299 80.2584,-0.000695658707 79.0436,-0.000695658707 L45.7076,-0.000695658707 C40.4537,-0.020131 35.6486,2.9525 33.3166,7.6556 C32.89472,8.49935 32.89472,9.4954 33.3166,10.3392 C35.6486,15.0462 40.4572,18.015 45.7076,17.9954 L54.0006,17.9954 L54.0006,24.0657 L47.6998,24.0657 C42.9225,24.053982 38.3404,25.9524 34.9728,29.3391 L0.8788,63.4331 C-0.2931,64.605 -0.2931,66.5034 0.8788,67.6753 C5.9921,72.7769 14.0118,73.5151 19.9688,69.4331 C21.875,70.7417 24.0586,71.5893 26.3477,71.9136 L7.4177,90.8826 C6.2458,92.0545 6.2497,93.9529 7.421606,95.1248 C7.984106,95.68339 8.745806,95.9998 9.542706,95.9998 L53.999706,95.9998 C60.624706,95.991988 65.991706,90.6248 65.999706,83.9998 L65.999706,72.0698 C82.573706,72.061988 96.007706,58.6168 95.9997096,42.0388 C95.9958,38.0427 95.198926,34.0857 93.644206,30.3978 L93.645,30.398 Z M45.399,48.07 L66.001,48.07 C71.4698,48.062188 76.247,44.363 77.622,39.07 C79.2782,45.488 75.4189,52.031 69.0009,53.691 C68.02043,53.94491 67.0126,54.07381 66.0009,54.07381 L45.3989,54.07381 C43.7427,54.07381 42.3989,52.73001 42.3989,51.07381 C42.3989,49.41361 43.7427,48.06991 45.3989,48.06991 L45.399,48.07 Z M17.848,63.433 C15.1488,66.1244 11.0472,66.8275 7.606,65.1908 L21.215,51.5818 C23.4611,49.3279 26.5158,48.0623 29.6994,48.0700642 L36.9182,48.0700642 C36.2307,50.0115 36.2307,52.1287 36.9182,54.0701 L28.4534,54.0701 C27.65652,54.0701 26.8948,54.38651 26.3323,54.94901 L17.848,63.433 Z M24.5785,65.1908 L29.6996,60.0697 L38.1723,60.0697 L34.6879,63.5619 C31.9809,66.1517 27.9574,66.8002 24.5789,65.1908 L24.5785,65.1908 Z M60.0005,83.9998 C59.996594,87.3123 57.313,89.9959 54.0005,89.9998 L52.3872,89.9998 C53.4458,88.1795 54.0005,86.1053 54.0005,83.9998 L54.0005,72.0588 L60.0005,72.0588 L60.0005,83.9998 Z M66.0005,66.0698 L51.0005,66.054176 C49.3443,66.054176 48.0005,67.397976 48.0005,69.054176 L48.0005,83.999176 C47.996594,87.311676 45.313,89.995276 42.0005,89.999176 L16.7735,89.999176 L46.6445,60.069176 L65.9965,60.069176 C75.9379,60.069176 83.9965,52.010576 83.9965,42.069176 C83.9965,32.127776 75.9379,24.069176 65.9965,24.069176 L59.9965,24.069176 L60.000406,5.999176 L77.039406,5.999176 L88.105406,32.710176 L88.113218,32.729707 C93.265518,44.952707 87.531188,59.034707 75.308218,64.186707 C72.362918,65.428907 69.194918,66.069507 65.999618,66.069507 L66.0005,66.0698 Z" id="Shape"></path>
        </g>
    </g>
</svg>